<?xml version="1.0" encoding="utf-8"?>
<!-- Generator: Adobe Adobe Illustrator 24.2.0, SVG Export Plug-In . SVG Version: 6.00 Build 0)  -->
<svg version="1.1" xmlns="http://www.w3.org/2000/svg" xmlns:xlink="http://www.w3.org/1999/xlink" x="0px" y="0px" width="3520px"
	 height="160px" viewBox="0 0 3520 160" style="enable-background:new 0 0 3520 160;" xml:space="preserve">
<style type="text/css">
	.st0{fill:#012E42;}
	.st1{fill:none;}
	.st2{fill:#FFFFFF;}
	.st3{font-family:'Courier New'; font-weight: bold}
	.st4{font-size:45px;}
</style>
<g id="Layer_1">
	<rect class="st0" width="320" height="160"/>
	<rect y="57" class="st1" width="320" height="46"/>
	<text transform="matrix(1 0 0 1 105.9912 92.8154)" class="st2 st3 st4">&lt;/ &gt; </text>
	<path class="st2" d="M168.56,96.81V63.19c0-1.52,1.23-2.75,2.75-2.75h0.5c1.52,0,2.75,1.23,2.75,2.75v33.63
		c0,1.52-1.23,2.75-2.75,2.75h-0.5C169.79,99.56,168.56,98.33,168.56,96.81z"/>
</g>
<g id="Layer_2">
	<rect x="320" class="st0" width="320" height="160"/>
	<rect x="320" y="57" class="st1" width="320" height="46"/>
	<text transform="matrix(1 0 0 1 425.9912 92.8154)" class="st2 st3 st4">&lt; /&gt; </text>
	<path class="st2" d="M465.44,96.81V63.19c0-1.52,1.23-2.75,2.75-2.75h0.5c1.52,0,2.75,1.23,2.75,2.75v33.63
		c0,1.52-1.23,2.75-2.75,2.75h-0.5C466.68,99.56,465.44,98.33,465.44,96.81z"/>
</g>
<g id="Layer_3">
	<rect x="640" class="st0" width="320" height="160"/>
	<rect x="640" y="57" class="st1" width="320" height="46"/>
	<text transform="matrix(1 0 0 1 732.4893 92.8154)" class="st2 st3 st4">&lt;&gt; /&gt; </text>
	<path class="st2" d="M798.78,96.81V63.19c0-1.52,1.23-2.75,2.75-2.75h0.5c1.52,0,2.75,1.23,2.75,2.75v33.63
		c0,1.52-1.23,2.75-2.75,2.75h-0.5C800.01,99.56,798.78,98.33,798.78,96.81z"/>
</g>
<g id="Layer_4">
	<rect x="960" class="st0" width="320" height="160"/>
	<rect x="960" y="57" class="st1" width="320" height="46"/>
	<text transform="matrix(1 0 0 1 1038.9863 92.8154)" class="st2 st3 st4">&lt;&gt;&lt; /&gt; </text>
	<path class="st2" d="M1130.33,96.81V63.19c0-1.52,1.23-2.75,2.75-2.75h0.5c1.52,0,2.75,1.23,2.75,2.75v33.63
		c0,1.52-1.23,2.75-2.75,2.75h-0.5C1131.56,99.56,1130.33,98.33,1130.33,96.81z"/>
</g>
<g id="Layer_5">
	<rect x="1280" class="st0" width="320" height="160"/>
	<rect x="1280" y="57" class="st1" width="320" height="46"/>
	<text transform="matrix(1 0 0 1 1358.9863 92.8154)" class="st2 st3 st4">&lt;&gt; &lt;/&gt; </text>
	<path class="st2" d="M1426.33,96.81V63.19c0-1.52,1.23-2.75,2.75-2.75h0.5c1.52,0,2.75,1.23,2.75,2.75v33.63
		c0,1.52-1.23,2.75-2.75,2.75h-0.5C1427.56,99.56,1426.33,98.33,1426.33,96.81z"/>
</g>
<g id="Layer_6">
	<rect x="1600" class="st0" width="320" height="160"/>
	<rect x="1600" y="57" class="st1" width="320" height="46"/>
	<text transform="matrix(1 0 0 1 1665.4844 92.8154)" class="st2 st3 st4">&lt;&gt;h &lt;/&gt; </text>
	<path class="st2" d="M1756.11,96.81V63.19c0-1.52,1.23-2.75,2.75-2.75h0.5c1.52,0,2.75,1.23,2.75,2.75v33.63
		c0,1.52-1.23,2.75-2.75,2.75h-0.5C1757.34,99.56,1756.11,98.33,1756.11,96.81z"/>
</g>
<g id="Layer_7">
	<rect x="1920" class="st0" width="320" height="160"/>
	<rect x="1920" y="57" class="st1" width="320" height="46"/>
	<text transform="matrix(1 0 0 1 1971.9824 92.8154)" class="st2 st3 st4">&lt;&gt;he &lt;/&gt; </text>
	<path class="st2" d="M2087.67,96.81V63.19c0-1.52,1.23-2.75,2.75-2.75h0.5c1.52,0,2.75,1.23,2.75,2.75v33.63
		c0,1.52-1.23,2.75-2.75,2.75h-0.5C2088.9,99.56,2087.67,98.33,2087.67,96.81z"/>
</g>
<g id="Layer_8">
	<rect x="2220" class="st0" width="360" height="160"/>
	<rect x="2220" y="57" class="st1" width="360" height="46"/>
	<text transform="matrix(1 0 0 1 2278.4805 92.8154)" class="st2 st3 st4">&lt;&gt;hel &lt;/&gt; </text>
	<path class="st2" d="M2424.62,96.81V63.19c0-1.52,1.23-2.75,2.75-2.75h1.25c1.52,0,2.75,1.23,2.75,2.75v33.63
		c0,1.52-1.23,2.75-2.75,2.75h-1.25C2425.86,99.56,2424.62,98.33,2424.62,96.81z"/>
</g>
<g id="Layer_9">
	<rect x="2560" class="st0" width="320" height="160"/>
	<rect x="2560" y="57" class="st1" width="320" height="46"/>
	<text transform="matrix(1 0 0 1 2598.4805 92.8154)" class="st2 st3 st4">&lt;&gt;hel &lt;/&gt; </text>
	<path class="st2" d="M2741.89,96.81V63.19c0-1.52,1.23-2.75,2.75-2.75h0.5c1.52,0,2.75,1.23,2.75,2.75v33.63
		c0,1.52-1.23,2.75-2.75,2.75h-0.5C2743.12,99.56,2741.89,98.33,2741.89,96.81z"/>
</g>
<g id="Layer_10">
	<rect x="2880" class="st0" width="320" height="160"/>
	<rect x="2880" y="57" class="st1" width="320" height="46"/>
	<text transform="matrix(1 0 0 1 2904.9785 92.8154)" class="st2 st3 st4">&lt;&gt;hell &lt;/&gt; </text>
	<path class="st2" d="M3075.22,96.81V63.19c0-1.52,1.23-2.75,2.75-2.75h0.5c1.52,0,2.75,1.23,2.75,2.75v33.63
		c0,1.52-1.23,2.75-2.75,2.75h-0.5C3076.45,99.56,3075.22,98.33,3075.22,96.81z"/>
</g>
<g id="Layer_11">
	<rect x="3200" class="st0" width="320" height="160"/>
	<rect x="3200" y="57" class="st1" width="320" height="46"/>
	<text transform="matrix(1 0 0 1 3211.4756 92.8154)" class="st2 st3 st4">&lt;&gt;hello &lt;/&gt; </text>
	<path class="st2" d="M3409.44,96.81V63.19c0-1.52,1.23-2.75,2.75-2.75h0.5c1.52,0,2.75,1.23,2.75,2.75v33.63
		c0,1.52-1.23,2.75-2.75,2.75h-0.5C3410.68,99.56,3409.44,98.33,3409.44,96.81z"/>
</g>
</svg>
