<?xml version="1.0" encoding="utf-8"?>
<!-- Generator: Adobe Adobe Illustrator 24.2.0, SVG Export Plug-In . SVG Version: 6.00 Build 0)  -->
<svg version="1.1" xmlns="http://www.w3.org/2000/svg" xmlns:xlink="http://www.w3.org/1999/xlink" x="0px" y="0px" width="3200px"
	 height="160px" viewBox="0 0 3200 160" style="enable-background:new 0 0 3200 160;" xml:space="preserve">
<style type="text/css">
	.st0{fill:#012E42;}
	.st1{fill:none;}
	.st2{fill:#FFFFFF;}
	.st3{font-family:'Courier New'; font-weight: bold}
	.st4{font-size:50px;}
</style>
<g id="Layer_1">
</g>
<g id="Layer_2">
	<rect class="st0" width="320" height="160"/>
	<rect y="57" class="st1" width="320" height="46"/>
	<text transform="matrix(1 0 0 1 120.7402 96.7949)" class="st2 st3 st4">&lt;/ &gt; </text>
	<path class="st2" d="M189.62,100.25V66.62c0-1.52,1.23-2.75,2.75-2.75h1.25c1.52,0,2.75,1.23,2.75,2.75v33.63
		c0,1.52-1.23,2.75-2.75,2.75h-1.25C190.86,103,189.62,101.77,189.62,100.25z"/>
</g>
<g id="Layer_3">
	<rect x="320" class="st0" width="320" height="160"/>
	<rect x="320" y="57" class="st1" width="320" height="46"/>
	<text transform="matrix(1 0 0 1 480.7402 96.7949)" class="st2 st3 st4">&lt; /&gt; </text>
	<path class="st2" d="M523.62,100.25V66.62c0-1.52,1.23-2.75,2.75-2.75h1.25c1.52,0,2.75,1.23,2.75,2.75v33.63
		c0,1.52-1.23,2.75-2.75,2.75h-1.25C524.86,103,523.62,101.77,523.62,100.25z"/>
</g>
<g id="Layer_4">
	<rect x="960" class="st0" width="320" height="160"/>
	<rect x="960" y="57" class="st1" width="320" height="46"/>
	<text transform="matrix(1 0 0 1 825.9883 96.7949)" class="st2 st3 st4">&lt;&gt; /&gt; </text>
	<path class="st2" d="M898.62,100.25V66.62c0-1.52,1.23-2.75,2.75-2.75h1.25c1.52,0,2.75,1.23,2.75,2.75v33.63
		c0,1.52-1.23,2.75-2.75,2.75h-1.25C899.86,103,898.62,101.77,898.62,100.25z"/>
</g>
<g id="Layer_5">
	<rect x="1280" class="st0" width="320" height="160"/>
	<rect x="1280" y="57" class="st1" width="320" height="46"/>
	<text transform="matrix(1 0 0 1 1171.2354 96.7949)" class="st2 st3 st4">&lt;&gt;&lt; /&gt; </text>
	<path class="st2" d="M1271.62,100.25V66.62c0-1.52,1.23-2.75,2.75-2.75h1.25c1.52,0,2.75,1.23,2.75,2.75v33.63
		c0,1.52-1.23,2.75-2.75,2.75h-1.25C1272.86,103,1271.62,101.77,1271.62,100.25z"/>
</g>
<g id="Layer_6">
	<rect x="1600" class="st0" width="320" height="160"/>
	<rect x="1600" y="57" class="st1" width="320" height="46"/>
	<text transform="matrix(1 0 0 1 1531.2354 96.7949)" class="st2 st3 st4">&lt;&gt; &lt;/&gt; </text>
	<path class="st2" d="M1604.62,100.25V66.62c0-1.52,1.23-2.75,2.75-2.75h1.25c1.52,0,2.75,1.23,2.75,2.75v33.63
		c0,1.52-1.23,2.75-2.75,2.75h-1.25C1605.86,103,1604.62,101.77,1604.62,100.25z"/>
</g>
<g id="Layer_7">
	<rect x="1920" class="st0" width="320" height="160"/>
	<rect x="1920" y="57" class="st1" width="320" height="46"/>
	<text transform="matrix(1 0 0 1 1876.4824 96.7949)" class="st2 st3 st4">&lt;&gt;h &lt;/&gt; </text>
	<path class="st2" d="M1975.62,100.25V66.62c0-1.52,1.23-2.75,2.75-2.75h1.25c1.52,0,2.75,1.23,2.75,2.75v33.63
		c0,1.52-1.23,2.75-2.75,2.75h-1.25C1976.86,103,1975.62,101.77,1975.62,100.25z"/>
</g>
<g id="Layer_8">
	<rect x="2240" class="st0" width="320" height="160"/>
	<rect x="2240" y="57" class="st1" width="320" height="46"/>
	<text transform="matrix(1 0 0 1 2221.7305 96.7949)" class="st2 st3 st4">&lt;&gt;he &lt;/&gt; </text>
	<path class="st2" d="M2348.62,100.25V66.62c0-1.52,1.23-2.75,2.75-2.75h1.25c1.52,0,2.75,1.23,2.75,2.75v33.63
		c0,1.52-1.23,2.75-2.75,2.75h-1.25C2349.86,103,2348.62,101.77,2348.62,100.25z"/>
</g>
<g id="Layer_9">
	<rect x="2560" class="st0" width="320" height="160"/>
	<rect x="2560" y="57" class="st1" width="320" height="46"/>
	<text transform="matrix(1 0 0 1 2566.9785 96.7949)" class="st2 st3 st4">&lt;&gt;hel &lt;/&gt; </text>
	<path class="st2" d="M2724.62,100.25V66.62c0-1.52,1.23-2.75,2.75-2.75h1.25c1.52,0,2.75,1.23,2.75,2.75v33.63
		c0,1.52-1.23,2.75-2.75,2.75h-1.25C2725.86,103,2724.62,101.77,2724.62,100.25z"/>
</g>
<g id="Layer_10">
	<rect x="2880" class="st0" width="320" height="160"/>
	<rect x="2880" y="57" class="st1" width="320" height="46"/>
	<text transform="matrix(1 0 0 1 2912.2256 96.7949)" class="st2 st3 st4">&lt;&gt;hell &lt;/&gt; </text>
	<path class="st2" d="M3099.62,100.25V66.62c0-1.52,1.23-2.75,2.75-2.75h1.25c1.52,0,2.75,1.23,2.75,2.75v33.63
		c0,1.52-1.23,2.75-2.75,2.75h-1.25C3100.86,103,3099.62,101.77,3099.62,100.25z"/>
</g>
<g id="Layer_11">
	<rect x="3200" class="st0" width="320" height="160"/>
	<rect x="3200" y="57" class="st1" width="320" height="46"/>
	<text transform="matrix(1 0 0 1 3257.4727 96.7949)" class="st2 st3 st4">&lt;&gt;hello &lt;/&gt; </text>
	<path class="st2" d="M3475.62,100.25V66.62c0-1.52,1.23-2.75,2.75-2.75h1.25c1.52,0,2.75,1.23,2.75,2.75v33.63
		c0,1.52-1.23,2.75-2.75,2.75h-1.25C3476.86,103,3475.62,101.77,3475.62,100.25z"/>
</g>
</svg>
