<?xml version="1.0" encoding="utf-8"?>
<!-- Generator: Adobe Adobe Illustrator 24.2.0, SVG Export Plug-In . SVG Version: 6.00 Build 0)  -->
<svg version="1.1" xmlns="http://www.w3.org/2000/svg" xmlns:xlink="http://www.w3.org/1999/xlink" x="0px" y="0px" width="3520px"
	 height="161px" viewBox="0 0 3520 161" style="enable-background:new 0 0 3520 161;" xml:space="preserve">
<style type="text/css">
	.st0{fill:#012E42;}
	.st1{fill:none;}
	.st2{fill:#FFFFFF;}
	.st3{font-family:'Courier New'; font-weight: bold}
	.st4{font-size:50px;}
	.st5{letter-spacing:-1;}
</style>
<g id="Layer_2">
	<rect class="st0" width="320" height="160"/>
	<rect y="57" class="st1" width="320" height="46"/>
	<text transform="matrix(1 0 0 1 102.2402 96.7949)" class="st2 st3 st4 st5">&lt;/ &gt; </text>
	<path class="st2" d="M168.56,100.25V66.62c0-1.52,1.23-2.75,2.75-2.75h0.5c1.52,0,2.75,1.23,2.75,2.75v33.63
		c0,1.52-1.23,2.75-2.75,2.75h-0.5C169.79,103,168.56,101.77,168.56,100.25z"/>
</g>
<g id="Layer_3">
	<rect x="320" class="st0" width="320" height="160"/>
	<rect x="320" y="57" class="st1" width="320" height="46"/>
	<text transform="matrix(1 0 0 1 422.2402 96.7949)" class="st2 st3 st4 st5">&lt; /&gt; </text>
	<path class="st2" d="M465.44,100.25V66.62c0-1.52,1.23-2.75,2.75-2.75h0.5c1.52,0,2.75,1.23,2.75,2.75v33.63
		c0,1.52-1.23,2.75-2.75,2.75h-0.5C466.68,103,465.44,101.77,465.44,100.25z"/>
</g>
<g id="Layer_4">
	<rect x="640" class="st0" width="320" height="160"/>
	<rect x="640" y="57" class="st1" width="320" height="46"/>
	<text transform="matrix(1 0 0 1 727.9883 96.7949)" class="st2 st3 st4 st5">&lt;&gt; /&gt; </text>
	<path class="st2" d="M798.78,100.25V66.62c0-1.52,1.23-2.75,2.75-2.75h0.5c1.52,0,2.75,1.23,2.75,2.75v33.63
		c0,1.52-1.23,2.75-2.75,2.75h-0.5C800.01,103,798.78,101.77,798.78,100.25z"/>
</g>
<g id="Layer_5">
	<rect x="960" class="st0" width="320" height="160"/>
	<rect x="960" y="57" class="st1" width="320" height="46"/>
	<text transform="matrix(1 0 0 1 1033.7354 96.7949)" class="st2 st3 st4 st5">&lt;&gt;&lt; /&gt; </text>
	<path class="st2" d="M1130.33,100.25V66.62c0-1.52,1.23-2.75,2.75-2.75h0.5c1.52,0,2.75,1.23,2.75,2.75v33.63
		c0,1.52-1.23,2.75-2.75,2.75h-0.5C1131.56,103,1130.33,101.77,1130.33,100.25z"/>
</g>
<g id="Layer_6">
	<rect x="1280" class="st0" width="320" height="160"/>
	<rect x="1280" y="57" class="st1" width="320" height="46"/>
	<text transform="matrix(1 0 0 1 1353.7354 96.7949)" class="st2 st3 st4 st5">&lt;&gt; &lt;/&gt; </text>
	<path class="st2" d="M1426.33,100.25V66.62c0-1.52,1.23-2.75,2.75-2.75h0.5c1.52,0,2.75,1.23,2.75,2.75v33.63
		c0,1.52-1.23,2.75-2.75,2.75h-0.5C1427.56,103,1426.33,101.77,1426.33,100.25z"/>
</g>
<g id="Layer_7">
	<rect x="1600" class="st0" width="320" height="160"/>
	<rect x="1600" y="57" class="st1" width="320" height="46"/>
	<text transform="matrix(1 0 0 1 1659.4824 96.7949)" class="st2 st3 st4 st5">&lt;&gt;h &lt;/&gt; </text>
	<path class="st2" d="M1756.11,100.25V66.62c0-1.52,1.23-2.75,2.75-2.75h0.5c1.52,0,2.75,1.23,2.75,2.75v33.63
		c0,1.52-1.23,2.75-2.75,2.75h-0.5C1757.34,103,1756.11,101.77,1756.11,100.25z"/>
</g>
<g id="Layer_8">
	<rect x="1920" class="st0" width="320" height="160"/>
	<rect x="1920" y="57" class="st1" width="320" height="46"/>
	<text transform="matrix(1 0 0 1 1965.2305 96.7949)" class="st2 st3 st4 st5">&lt;&gt;he &lt;/&gt; </text>
	<path class="st2" d="M2087.67,100.25V66.62c0-1.52,1.23-2.75,2.75-2.75h0.5c1.52,0,2.75,1.23,2.75,2.75v33.63
		c0,1.52-1.23,2.75-2.75,2.75h-0.5C2088.9,103,2087.67,101.77,2087.67,100.25z"/>
</g>
<g id="Layer_9">
	<rect x="2220" class="st0" width="360" height="160"/>
	<rect x="2220" y="57" class="st1" width="360" height="46"/>
	<text transform="matrix(1 0 0 1 2270.9785 96.7949)" class="st2 st3 st4 st5">&lt;&gt;hel &lt;/&gt; </text>
	<path class="st2" d="M2424.62,100.25V66.62c0-1.52,1.23-2.75,2.75-2.75h1.25c1.52,0,2.75,1.23,2.75,2.75v33.63
		c0,1.52-1.23,2.75-2.75,2.75h-1.25C2425.86,103,2424.62,101.77,2424.62,100.25z"/>
</g>
<g id="Layer_10">
	<rect x="2560" class="st0" width="320" height="160"/>
	<rect x="2560" y="57" class="st1" width="320" height="46"/>
	<text transform="matrix(1 0 0 1 2590.9785 96.7949)" class="st2 st3 st4 st5">&lt;&gt;hel &lt;/&gt; </text>
	<path class="st2" d="M2741.89,100.25V66.62c0-1.52,1.23-2.75,2.75-2.75h0.5c1.52,0,2.75,1.23,2.75,2.75v33.63
		c0,1.52-1.23,2.75-2.75,2.75h-0.5C2743.12,103,2741.89,101.77,2741.89,100.25z"/>
</g>
<g id="Layer_11">
	<rect x="2880" class="st0" width="320" height="160"/>
	<rect x="2880" y="57" class="st1" width="320" height="46"/>
	<text transform="matrix(1 0 0 1 2896.7256 96.7949)" class="st2 st3 st4 st5">&lt;&gt;hell &lt;/&gt; </text>
	<path class="st2" d="M3075.22,100.25V66.62c0-1.52,1.23-2.75,2.75-2.75h0.5c1.52,0,2.75,1.23,2.75,2.75v33.63
		c0,1.52-1.23,2.75-2.75,2.75h-0.5C3076.45,103,3075.22,101.77,3075.22,100.25z"/>
</g>
<g id="Layer_1">
	<rect x="3200" class="st0" width="320" height="160"/>
	<rect x="3200" y="57" class="st1" width="320" height="46"/>
	<text transform="matrix(1 0 0 1 3202.4727 96.7949)" class="st2 st3 st4 st5">&lt;&gt;hello &lt;/&gt; </text>
	<path class="st2" d="M3409.44,100.25V66.62c0-1.52,1.23-2.75,2.75-2.75h0.5c1.52,0,2.75,1.23,2.75,2.75v33.63
		c0,1.52-1.23,2.75-2.75,2.75h-0.5C3410.68,103,3409.44,101.77,3409.44,100.25z"/>
</g>
</svg>
